<svg width="297" height="134" viewBox="0 0 297 134" fill="none" xmlns="http://www.w3.org/2000/svg">
<path d="M3.26157 17.676V46.4991H19.2845V50.1758H-0.868991V17.676H3.26157ZM56.7358 47.0438V50.0396C55.707 50.4027 54.9051 50.5843 54.3301 50.5843C51.9093 50.5843 50.5929 49.4798 50.3811 47.2708C48.7168 49.5403 46.069 50.6751 42.4377 50.6751C39.9261 50.6751 37.9743 49.9791 36.5823 48.5871C35.3719 47.3767 34.7667 45.8183 34.7667 43.9119C34.7667 41.7331 35.5383 40.0536 37.0816 38.8735C37.9592 38.2077 39.7899 37.5571 42.5739 36.9217L50.1996 35.1968L50.245 33.245C50.245 30.915 48.4898 29.7499 44.9796 29.7499C41.6207 29.7499 39.8202 31.1116 39.5781 33.8351H35.8107C35.9015 31.7774 36.4159 30.2038 37.354 29.1144C38.9578 27.2686 41.5602 26.3456 45.1612 26.3456C51.0015 26.3456 53.9216 28.4638 53.9216 32.7003V45.7275C53.9216 46.8774 54.4209 47.4523 55.4195 47.4523C55.5405 47.4523 55.8583 47.3616 56.3727 47.18C56.5543 47.1195 56.6753 47.0741 56.7358 47.0438ZM50.245 38.238L44.2534 39.7813C42.1049 40.326 40.6221 40.8858 39.8051 41.4607C39.0183 42.0357 38.6249 42.8376 38.6249 43.8665C38.6249 46.257 40.1682 47.4523 43.2548 47.4523C45.4335 47.4523 47.2794 46.7412 48.7924 45.319C49.7608 44.4414 50.245 43.4428 50.245 42.3232V38.238ZM92.3715 17.676V50.1758H88.6495V46.953C87.1667 49.4647 84.8669 50.7205 81.7501 50.7205C78.3306 50.7205 75.698 49.4798 73.8521 46.9984C72.2483 44.8197 71.4464 41.9449 71.4464 38.3742C71.4464 34.4706 72.4903 31.4142 74.5783 29.2052C76.3637 27.2988 78.6786 26.3456 81.5231 26.3456C84.6702 26.3456 87.0457 27.5258 88.6495 29.8861V17.676H92.3715ZM82.1586 29.7953C80.1009 29.7953 78.4365 30.6123 77.1656 32.2464C75.9249 33.8502 75.3046 35.9836 75.3046 38.6465C75.3046 41.4002 76.0308 43.5639 77.4833 45.1374C78.724 46.5294 80.2976 47.2254 82.204 47.2254C84.1709 47.2254 85.7293 46.4537 86.8792 44.9104C88.0594 43.3672 88.6495 41.2792 88.6495 38.6465C88.6495 35.7718 87.9837 33.5325 86.6523 31.9287C85.4721 30.5064 83.9742 29.7953 82.1586 29.7953ZM124.966 26.8449H128.96L118.566 55.078C117.355 58.2856 115.343 59.8894 112.529 59.8894C111.197 59.8894 110.032 59.5868 109.034 58.9816L109.76 55.7588C110.517 56.0615 111.258 56.2128 111.984 56.2128C113.437 56.2128 114.45 55.4562 115.025 53.9432L116.433 50.2212L108.535 26.8449H112.529L118.475 45.0012L124.966 26.8449ZM190.962 26.8449V50.1758H187.286V26.8449H190.962ZM189.192 17.7214C189.828 17.7214 190.357 17.9483 190.781 18.4022C191.235 18.8259 191.462 19.3403 191.462 19.9455C191.462 20.581 191.235 21.1257 190.781 21.5796C190.357 22.0032 189.828 22.215 189.192 22.215C188.587 22.215 188.057 22.0032 187.604 21.5796C187.18 21.1257 186.968 20.581 186.968 19.9455C186.968 19.3403 187.18 18.8259 187.604 18.4022C188.057 17.9483 188.587 17.7214 189.192 17.7214ZM209.889 26.8449H213.338V31.1116C214.7 27.904 216.849 26.3002 219.784 26.3002C220.147 26.3002 220.586 26.3456 221.1 26.4364V30.2492C218.679 30.2795 217.015 30.6275 216.107 31.2932C214.443 32.5036 213.611 34.758 213.611 38.0564V50.1758H209.889V26.8449ZM246.489 26.3456C249.999 26.3456 252.677 27.5712 254.523 30.0223C256.157 32.1405 256.974 35.0153 256.974 38.6465C256.974 42.7014 255.915 45.788 253.797 47.9062C251.981 49.7521 249.53 50.6751 246.443 50.6751C242.873 50.6751 240.149 49.4798 238.273 47.0892C236.639 45.0012 235.822 42.187 235.822 38.6465C235.822 34.5311 236.896 31.3689 239.045 29.1598C240.891 27.2837 243.372 26.3456 246.489 26.3456ZM246.489 29.7499C244.371 29.7499 242.706 30.5518 241.496 32.1556C240.285 33.7292 239.68 35.8928 239.68 38.6465C239.68 41.5213 240.361 43.7152 241.723 45.2282C242.903 46.5596 244.477 47.2254 246.443 47.2254C248.531 47.2254 250.15 46.4689 251.3 44.9558C252.48 43.4428 253.071 41.3397 253.071 38.6465C253.071 35.681 252.405 33.4114 251.073 31.8379C249.923 30.4459 248.395 29.7499 246.489 29.7499ZM274.726 26.8449H278.176V30.7939C280.052 27.8284 282.624 26.3456 285.892 26.3456C288.162 26.3456 289.962 26.9206 291.294 28.0705C292.625 29.1901 293.291 30.7031 293.291 32.6095V50.1758H289.614V34.1074C289.614 32.7155 289.175 31.6109 288.298 30.7939C287.45 29.9769 286.285 29.5684 284.803 29.5684C282.866 29.5684 281.323 30.2795 280.173 31.7017C279.023 33.124 278.448 35.0153 278.448 37.3756V50.1758H274.726V26.8449Z" fill="black"/>
<path d="M159.759 133.222C179.508 133.222 195.518 117.779 195.518 98.7291C195.518 79.6792 179.508 64.2363 159.759 64.2363C140.01 64.2363 124 79.6792 124 98.7291C124 117.779 140.01 133.222 159.759 133.222Z" stroke="black" stroke-width="1.32292"/>
<path d="M143.314 68.1473L143.299 -4" stroke="black" stroke-width="1.32292"/>
<path d="M173.499 52.7221L144.342 32.6368L172.06 7.36169" stroke="black" stroke-width="1.32292"/>
</svg>
